<?xml version="1.0" encoding="UTF-8" standalone="no"?>
<!-- Created with Inkscape (http://www.inkscape.org/) -->

<svg
   xmlns:dc="http://purl.org/dc/elements/1.1/"
   xmlns:cc="http://creativecommons.org/ns#"
   xmlns:rdf="http://www.w3.org/1999/02/22-rdf-syntax-ns#"
   xmlns:svg="http://www.w3.org/2000/svg"
   xmlns="http://www.w3.org/2000/svg"
   xmlns:sodipodi="http://sodipodi.sourceforge.net/DTD/sodipodi-0.dtd"
   xmlns:inkscape="http://www.inkscape.org/namespaces/inkscape"
   width="721.79999"
   height="602.53003"
   id="svg3161"
   version="1.1"
   inkscape:version="0.48.1 r9760"
   sodipodi:docname="mapaufscar.svg">
  <defs
     id="defs3163" />
  <sodipodi:namedview
     id="base"
     pagecolor="#ffffff"
     bordercolor="#666666"
     borderopacity="1.0"
     inkscape:pageopacity="0.0"
     inkscape:pageshadow="2"
     inkscape:zoom="1"
     inkscape:cx="239.65873"
     inkscape:cy="314.81415"
     inkscape:document-units="px"
     inkscape:current-layer="layer1"
     showgrid="false"
     inkscape:window-width="1366"
     inkscape:window-height="744"
     inkscape:window-x="0"
     inkscape:window-y="24"
     inkscape:window-maximized="1" />
  <metadata
     id="metadata3166">
    <rdf:RDF>
      <cc:Work
         rdf:about="">
        <dc:format>image/svg+xml</dc:format>
        <dc:type
           rdf:resource="http://purl.org/dc/dcmitype/StillImage" />
        <dc:title />
      </cc:Work>
    </rdf:RDF>
  </metadata>
  <g
     inkscape:label="Camada 1"
     inkscape:groupmode="layer"
     id="layer1"
     transform="translate(0,-449.83218)">
    <rect
       style="fill:#eeeeee;fill-opacity:1;stroke:#000000;stroke-width:1.79999995;stroke-miterlimit:4;stroke-opacity:1;stroke-dasharray:none"
       id="rect3169"
       width="720"
       height="600"
       x="0.89999998"
       y="451.46219" />
    <path
       style="fill:none;stroke:#000000;stroke-width:0.83933854;stroke-linecap:butt;stroke-linejoin:miter;stroke-miterlimit:4;stroke-opacity:1;stroke-dasharray:none"
       d="m 55.127963,545.56874 c -5.985641,-5.68115 -6.009165,21.25775 -6.468905,33.06701 4.575937,-3.62677 7.01416,-3.28033 10.511977,1.32269 -4.364717,-13.26469 -2.62592,-23.26788 -4.043072,-34.3897 z"
       id="path3001"
       inkscape:connector-curvature="0"
       sodipodi:nodetypes="cccc" />
    <path
       style="fill:none;stroke:#000000;stroke-width:0.95924413;stroke-linecap:butt;stroke-linejoin:miter;stroke-miterlimit:4;stroke-opacity:1;stroke-dasharray:none"
       d="m 46.637518,589.21722 c 3.9083,-2.39788 7.816599,-4.51385 11.724898,0 1.812403,3.44503 3.091639,7.35523 -0.40431,15.43127 -4.116346,1.80186 -8.03719,3.75041 -12.129199,-1.32268 l 0.808611,-11.90413 z"
       id="path3003"
       inkscape:connector-curvature="0"
       sodipodi:nodetypes="cccccc" />
    <path
       style="fill:none;stroke:#000000;stroke-width:0.95924413;stroke-linecap:butt;stroke-linejoin:miter;stroke-miterlimit:4;stroke-opacity:1;stroke-dasharray:none"
       d="m 46.233216,615.67084 c 4.72907,2.66524 7.497538,2.12346 10.107668,1.32269 -1.334695,-4.72905 -9.327221,30.3124 -13.34212,28.21719 -0.398023,-7.62846 2.660741,-24.03075 3.234452,-29.53988 z"
       id="path3005"
       inkscape:connector-curvature="0"
       sodipodi:nodetypes="cccc" />
    <path
       style="fill:none;stroke:#000000;stroke-width:0.95924413;stroke-linecap:butt;stroke-linejoin:miter;stroke-miterlimit:4;stroke-opacity:1;stroke-dasharray:none"
       d="m 70.491624,590.53989 c 1.02455,3.15473 1.796728,7.13601 -0.404311,11.46324 15.046268,-3.53679 32.065107,0.26154 48.112517,0 2.21813,-1.91053 3.52144,-3.82108 0.4043,-5.73162 -15.76796,-2.15641 -32.344539,1.90645 -48.112506,-5.73162 z"
       id="path3777"
       inkscape:connector-curvature="0"
       sodipodi:nodetypes="ccccc" />
    <path
       style="fill:#ffffff;fill-opacity:1;stroke:#000000;stroke-width:1.43796456;stroke-linecap:butt;stroke-linejoin:miter;stroke-miterlimit:4;stroke-opacity:1;stroke-dasharray:none"
       d="m 438.42161,619.11223 c -14.93419,-3.66399 -20.93153,-12.09074 -25.46482,-17.67131 l -48.61464,1.00979 -5.55596,8.5832 -42.59568,2.01958 -4.62996,-8.58321 -53.17961,0.5098 c -0.10813,20.8336 -45.45376,26.27189 -52.26357,3.01469 l -62.41565,0.60089 -56.016954,-0.17241 c -8.401685,0.3858 -18.389942,-3.27354 -25.205065,15.26997 -8.792193,23.92299 -29.870249,62.64455 -17.164249,161.09828 -5.015736,28.39036 83.372298,248.0966 102.924198,265.4279 l -28.9543,0.09 c 17.95556,-23.4719 -99.660146,-238.04349 -97.542055,-274.54006 1.047364,-81.91168 2.066959,-100.1299 6.429493,-151.31263 4.834447,-57.19089 4.715336,-71.16727 14.702968,-173.31426 l 28.705782,0.7635 -5.601119,106.12636 c 0.861938,19.10672 11.174433,24.47239 23.104637,27.48595 0,0 42.565124,1.52702 52.859074,1.15141 l 65.06224,0.1342 c 8.72089,-19.31442 43.36783,-17.74218 50.23985,-0.3235 34.30191,3.52025 65.78973,1.86177 67.40595,-6.33726 3.3541,-17.0152 -26.35172,-13.40865 -32.20747,-21.57051 -30.03298,-41.86061 119.25692,-37.46841 93.36201,-6.16727 -2.25527,5.09848 -58.7535,13.03162 -39.64843,30.33118 14.84895,5.10542 44.06819,3.08093 64.7465,-2.43254 6.84977,-21.36365 19.52559,-22.81729 27.51683,-24.80844 l -2.77798,-104.00827 12.73436,-0.5049 5.32251,104.51317 c 29.64078,21.83276 22.03304,47.89113 1.85197,62.60691 l 17.4927,274.62697 -17.00179,2.39007 -4.19488,-59.40753 -27.77979,1.5147 c -4.07705,1.63718 -9.90544,4.93187 -8.79694,13.12724 l -93.5253,4.03915 -2.31498,-45.94539 85.65437,-3.53427 c 3.85794,7.32621 2.82259,12.75187 15.27888,14.13705 l 29.63178,-1.00979 -12.03791,-198.92841"
       id="path3781"
       inkscape:connector-curvature="0"
       sodipodi:nodetypes="ccccccccccsccccccccccccssccccccccccccccccccc" />
    <path
       style="fill:#eeeeee;fill-opacity:1;stroke:#000000;stroke-width:1.25899994;stroke-linecap:butt;stroke-linejoin:miter;stroke-miterlimit:4;stroke-opacity:1;stroke-dasharray:none"
       d="m 220.33752,590.60444 c -3.59105,3.52457 -3.86748,11.38299 -0.46299,15.08808 5.23928,5.70188 15.15962,8.23597 23.19677,1.25 5.74372,-4.99249 2.73924,-13.78612 -0.25,-16.60768 -7.64745,-7.21846 -17.13464,-4.98051 -22.48378,0.2696 z"
       id="path3783"
       inkscape:connector-curvature="0"
       sodipodi:nodetypes="aassa" />
    <path
       style="fill:#ffc879;fill-opacity:1;stroke:#000000;stroke-width:1.39309835;stroke-linecap:butt;stroke-linejoin:miter;stroke-miterlimit:4;stroke-opacity:1;stroke-dasharray:none"
       d="m 191.58151,555.38928 16.66789,0.5049 0.46299,-22.72026 33.33576,-1.00979 0,21.71047 17.13088,-0.50489 -1.389,-45.4405 -65.74552,2.01958 z"
       id="path3789"
       inkscape:connector-curvature="0" />
    <path
       style="fill:#ffc879;fill-opacity:1;stroke:#000000;stroke-width:1.37582147;stroke-linecap:butt;stroke-linejoin:miter;stroke-miterlimit:4;stroke-opacity:1;stroke-dasharray:none"
       d="m 509.34024,509.44436 5.93385,53.51883 100.87557,-12.62238 -7.2054,-53.01392 c -26.08314,3.2316 -50.52521,6.27702 -99.60402,12.11747 z"
       id="path3791"
       inkscape:connector-curvature="0"
       sodipodi:nodetypes="ccccc" />
    <rect
       style="fill:#ffc879;fill-opacity:1;stroke:#000000;stroke-width:1.43113091;stroke-miterlimit:4;stroke-opacity:1;stroke-dasharray:none"
       id="rect3793"
       width="86.01252"
       height="50.045494"
       x="566.97644"
       y="620.43311"
       transform="matrix(0.99390309,-0.11025722,0.09122642,0.99583018,0,0)" />
    <path
       style="fill:#ffc879;fill-opacity:1;stroke:#000000;stroke-width:1.42076004;stroke-linecap:butt;stroke-linejoin:miter;stroke-miterlimit:4;stroke-opacity:1;stroke-dasharray:none"
       d="m 549.62186,637.57938 63.58236,-9.42432 7.40766,55.19962 -61.11314,9.42433 -2.46921,-12.79015 -55.55742,10.77065 -4.32113,-26.25348 54.9401,-8.75116 z"
       id="path3795"
       inkscape:connector-curvature="0" />
    <rect
       style="fill:#ffc879;fill-opacity:1;stroke:#000000;stroke-width:1.46301806;stroke-miterlimit:4;stroke-opacity:1;stroke-dasharray:none"
       id="rect3797"
       width="112.9756"
       height="30.790958"
       x="249.21053"
       y="645.13989"
       transform="matrix(0.99902258,-0.04420269,0.03718154,0.99930853,0,0)" />
    <rect
       style="fill:#ffc879;fill-opacity:1;stroke:#000000;stroke-width:1.45012188;stroke-miterlimit:4;stroke-opacity:1;stroke-dasharray:none"
       id="rect3821"
       width="29.579155"
       height="102.2961"
       x="350.08362"
       y="693.3786"
       transform="matrix(0.9989801,-0.04515268,0.02682796,0.99964007,0,0)" />
    <rect
       style="fill:#ffc879;fill-opacity:1;stroke:#000000;stroke-width:1.44910239;stroke-miterlimit:4;stroke-opacity:1;stroke-dasharray:none"
       id="rect3821-4"
       width="29.535149"
       height="102.30026"
       x="265.75699"
       y="690.43842"
       transform="matrix(0.99914995,-0.04122353,0.02442124,0.99970176,0,0)" />
    <rect
       style="fill:#805885;fill-opacity:1;stroke:#000000;stroke-width:1.4630208;stroke-miterlimit:4;stroke-opacity:1;stroke-dasharray:none"
       id="rect3841"
       width="90.760002"
       height="159.5164"
       x="304.66895"
       y="880.65399"
       transform="matrix(0.9988756,-0.04740828,0.03987966,0.99920449,0,0)" />
    <path
       sodipodi:type="arc"
       style="fill:#eeeeee;fill-opacity:1;stroke:#000000;stroke-width:1.82299995;stroke-miterlimit:4;stroke-opacity:1;stroke-dasharray:none"
       id="path3843"
       sodipodi:cx="615.74072"
       sodipodi:cy="175.87038"
       sodipodi:rx="20.370371"
       sodipodi:ry="19.907408"
       d="m 636.11109,175.87038 c 0,10.99455 -9.12012,19.9074 -20.37037,19.9074 -11.25024,0 -20.37037,-8.91285 -20.37037,-19.9074 0,-10.99456 9.12013,-19.90741 20.37037,-19.90741 11.25025,0 20.37037,8.91285 20.37037,19.90741 z"
       transform="matrix(0.71607329,0,0,0.78087286,2.6900308,451.14325)" />
    <rect
       style="fill:#ffc879;fill-opacity:1;stroke:#000000;stroke-width:1.42076576;stroke-miterlimit:4;stroke-opacity:1;stroke-dasharray:none"
       id="rect4368"
       width="23.869108"
       height="79.533348"
       x="124.86273"
       y="557.81842" />
    <path
       style="fill:#eeeeee;fill-opacity:1;stroke:#000000;stroke-width:0.95924413;stroke-linecap:butt;stroke-linejoin:miter;stroke-miterlimit:4;stroke-opacity:1;stroke-dasharray:none"
       d="m 71.440403,588.95846 c 0.278579,3.52773 -0.02405,8.04642 -0.404309,11.46326 15.052996,-3.53005 31.207386,1.37216 36.862516,-1.75 2.0138,-1.1118 0.93427,-3.0741 -0.5957,-3.73163 -7.631528,-3.27978 -20.094544,1.65646 -35.862507,-5.98163 z"
       id="path3777-1"
       inkscape:connector-curvature="0"
       sodipodi:nodetypes="ccssc" />
    <text
       xml:space="preserve"
       style="font-size:12px;font-style:normal;font-weight:bold;line-height:125%;letter-spacing:0px;word-spacing:0px;fill:#000000;fill-opacity:1;stroke:none;font-family:Sans;-inkscape-font-specification:Sans Bold"
       x="559.28632"
       y="503.73611"
       id="text4634"
       sodipodi:linespacing="125%"
       transform="matrix(0.95364299,-0.00188883,-0.0230971,1.0486562,0,0)"><tspan
         sodipodi:role="line"
         id="tspan4636"
         x="559.28632"
         y="503.73611">Restaurante</tspan><tspan
         sodipodi:role="line"
         x="559.28632"
         y="518.73608"
         id="tspan4638">universitário</tspan></text>
    <text
       xml:space="preserve"
       style="font-size:18.98622322px;font-style:normal;font-weight:normal;line-height:125%;letter-spacing:0px;word-spacing:0px;fill:#000000;fill-opacity:1;stroke:none;font-family:Sans"
       x="108.02466"
       y="626.5769"
       id="text4644"
       sodipodi:linespacing="125%"
       transform="matrix(0.9576444,4.3813648e-4,-0.00402298,1.0442271,0,0)"><tspan
         sodipodi:role="line"
         id="tspan4646"
         x="108.02466"
         y="626.5769">Portaria</tspan></text>
    <text
       xml:space="preserve"
       style="font-size:13.59692001px;font-style:normal;font-weight:bold;line-height:125%;letter-spacing:0px;word-spacing:0px;fill:#000000;fill-opacity:1;stroke:none;font-family:Sans;-inkscape-font-specification:Sans Bold"
       x="57.766296"
       y="670.04858"
       id="text3155"
       sodipodi:linespacing="125%"
       transform="scale(0.89507574,1.1172239)"><tspan
         sodipodi:role="line"
         id="tspan3157"
         x="57.766296"
         y="670.04858">Rodovia João Leme dos Santos</tspan><tspan
         sodipodi:role="line"
         x="57.766296"
         y="687.04474"
         id="tspan3159">                Km 110</tspan></text>
    <path
       style="fill:#ffff9b;fill-opacity:1;stroke:none"
       d="m 42.952314,449.8324 29.577461,0 -7.04225,107.04225 c 2.77122,13.1227 6.42296,26.68566 5.6338,38.02817 0.0786,8.21596 -3.44851,16.43193 -7.04225,24.64789 -16.634133,37.33211 -25.954491,109.69097 -18.401386,166.80987 12.331548,93.25494 62.414231,188.1438 102.908431,262.76762 l -28.87324,0 C 77.617867,963.57485 39.952659,876.99181 22.529779,784.33944 11.975872,728.21528 28.577606,666.45412 29.572032,609.69156 z"
       id="path4894"
       inkscape:connector-curvature="0"
       sodipodi:nodetypes="cccccsccscc" />
    <path
       style="fill:#eeeeee;fill-opacity:1;stroke:#000000;stroke-width:0.95924413;stroke-linecap:butt;stroke-linejoin:miter;stroke-miterlimit:4;stroke-opacity:1;stroke-dasharray:none"
       d="m 43.713085,610.73202 c 4.72907,2.16525 6.74754,1.87347 11.10767,1.32269 -3.5847,6.27096 -10.07722,26.0624 -13.84212,34.71719 -0.39802,-7.62845 2.16074,-30.53075 2.73445,-36.03988 z"
       id="path3005-0-6"
       inkscape:connector-curvature="0"
       sodipodi:nodetypes="cccc" />
    <path
       style="fill:#eeeeee;fill-opacity:1;stroke:#000000;stroke-width:0.95924413;stroke-linecap:butt;stroke-linejoin:miter;stroke-miterlimit:4;stroke-opacity:1;stroke-dasharray:none"
       d="m 48.044017,585.39274 c 2.73207,-1.02786 6.77954,-1.4263 8.7249,0.75 3.429194,3.83629 3.470937,12.04619 -0.40431,15.43129 -3.063002,2.67559 -9.233074,1.53271 -12.1292,-1.32268 -2.308947,-2.27647 -2.215324,-6.5776 -1.19139,-9.65414 0.759695,-2.2826 2.748379,-4.35736 5,-5.20447 z"
       id="path3003-2-7"
       inkscape:connector-curvature="0"
       sodipodi:nodetypes="aaaaaa" />
    <path
       style="fill:#eeeeee;fill-opacity:1;stroke:#000000;stroke-width:0.83933854;stroke-linecap:butt;stroke-linejoin:miter;stroke-miterlimit:4;stroke-opacity:1;stroke-dasharray:none"
       d="m 52.070162,540.43103 c -1.98565,11.81885 -3.25917,24.00774 -5.21891,34.81703 4.82594,-1.62678 5.51416,-1.53036 10.51198,1.32268 -3.86472,-12.76471 -3.87592,-25.01789 -5.29307,-36.13971 z"
       id="path3001-3-0"
       inkscape:connector-curvature="0"
       sodipodi:nodetypes="cccc" />
    <path
       style="fill:none;stroke:#000000;stroke-width:1.60000002;stroke-linecap:butt;stroke-linejoin:miter;stroke-miterlimit:4;stroke-opacity:1;stroke-dasharray:none"
       d="m 146.47344,1049.1282 -38.1197,-80.19017 C 92.001913,939.17449 82.005078,909.57812 70.938267,879.15396 61.349252,851.58298 49.971769,819.17092 45.769216,788.5648 c -3.193935,-23.26061 -2.523919,-47.20952 -1.24407,-70.42253 3.786888,-35.46625 6.252149,-72.6357 22.37083,-102.8169"
       id="path5494"
       inkscape:connector-curvature="0"
       sodipodi:nodetypes="cccscc" />
    <path
       style="fill:none;stroke:#000000;stroke-width:1.29999995;stroke-linecap:butt;stroke-linejoin:miter;stroke-miterlimit:4;stroke-opacity:1;stroke-dasharray:none"
       d="M 87.318516,585.04368 C 72.076641,583.73217 65.717606,571.31711 65.487525,551.24086 l 7.089909,-99.95235 -28.216669,-0.0476 -2.112676,0.70422 c -8.177462,82.15963 -14.592169,164.31926 -19.014085,246.47888 -2.617885,26.25535 -4.635787,57.54717 -0.704225,85.91549 7.485186,54.00961 25.302634,99.48104 45.774648,157.04226 18.006342,38.71328 35.838023,81.28024 51.408453,107.74654 l -0.70422,0.7041"
       id="path5496"
       inkscape:connector-curvature="0"
       sodipodi:nodetypes="ccccccaccc" />
    <text
       xml:space="preserve"
       style="font-size:10.94553471px;font-style:normal;font-weight:normal;line-height:125%;letter-spacing:0px;word-spacing:0px;fill:#000000;fill-opacity:1;stroke:none;font-family:Sans"
       x="294.34903"
       y="549.0979"
       id="text5498"
       sodipodi:linespacing="125%"
       transform="matrix(0.99999915,0.00130505,-0.00130505,0.99999915,0,0)"><tspan
         sodipodi:role="line"
         id="tspan5500"
         x="294.34903"
         y="549.0979">Estacionamento</tspan></text>
    <text
       xml:space="preserve"
       style="font-size:12.5054369px;font-style:normal;font-weight:normal;line-height:125%;letter-spacing:0px;word-spacing:0px;fill:#000000;fill-opacity:1;stroke:none;font-family:Sans"
       x="287.70895"
       y="623.76874"
       id="text5527"
       sodipodi:linespacing="125%"
       transform="matrix(0.99895968,-0.04560215,0.04560215,0.99895968,0,0)"><tspan
         sodipodi:role="line"
         id="tspan5529"
         x="287.70895"
         y="623.76874">Ônibus</tspan></text>
    <text
       xml:space="preserve"
       style="font-size:12px;font-style:normal;font-weight:bold;text-align:center;line-height:125%;letter-spacing:0px;word-spacing:0px;text-anchor:middle;fill:#000000;fill-opacity:1;stroke:none;font-family:Sans;-inkscape-font-specification:Sans Bold"
       x="663.24982"
       y="566.03253"
       id="text5531"
       sodipodi:linespacing="125%"
       transform="matrix(0.99998891,-0.00470875,0.00470875,0.99998891,0,0)"><tspan
         sodipodi:role="line"
         id="tspan5533"
         x="663.24982"
         y="566.03253">Centro</tspan><tspan
         sodipodi:role="line"
         x="663.24982"
         y="581.03253"
         id="tspan5535">de</tspan><tspan
         sodipodi:role="line"
         x="663.24982"
         y="596.03253"
         id="tspan5537">Convivência</tspan></text>
    <text
       xml:space="preserve"
       style="font-size:40px;font-style:normal;font-weight:bold;line-height:125%;letter-spacing:0px;word-spacing:0px;fill:#000000;fill-opacity:1;stroke:#000000;stroke-width:1.39999998;stroke-miterlimit:4;stroke-opacity:1;stroke-dasharray:none;font-family:Sans;-inkscape-font-specification:Sans Bold"
       x="513.37488"
       y="880.11407"
       id="text5539"
       sodipodi:linespacing="125%"><tspan
         sodipodi:role="line"
         id="tspan5541"
         x="513.37488"
         y="880.11407"
         style="font-weight:bold;fill:#800000;stroke:#000000;stroke-width:1.39999998;stroke-miterlimit:4;stroke-opacity:1;stroke-dasharray:none;-inkscape-font-specification:Sans Bold">SeCoT</tspan></text>
    <path
       style="fill:#8e0000;fill-opacity:1;stroke:#000000;stroke-width:1.89999998;stroke-linecap:butt;stroke-linejoin:miter;stroke-miterlimit:4;stroke-opacity:1;stroke-dasharray:none"
       d="m 494.35725,865.87114 10.56338,23.94367 c -11.29976,11.81427 -31.21127,13.74413 -50,16.19718 l 6.33803,14.0845 -37.32394,-9.85915 16.9014,-36.61972 5.63381,15.49296 c 20.54503,-1.07928 34.76508,-12.88168 47.88732,-23.23944 z"
       id="path5543"
       inkscape:connector-curvature="0"
       sodipodi:nodetypes="cccccccc" />
    <text
       xml:space="preserve"
       style="font-size:10.94553471px;font-style:normal;font-weight:normal;line-height:125%;letter-spacing:0px;word-spacing:0px;fill:#000000;fill-opacity:1;stroke:none;font-family:Sans"
       x="326.95221"
       y="832.2467"
       id="text5498-5"
       sodipodi:linespacing="125%"
       transform="matrix(0.99999915,0.00130505,-0.00130505,0.99999915,0,0)"><tspan
         sodipodi:role="line"
         id="tspan5500-6"
         x="326.95221"
         y="832.2467">Estacionamento</tspan></text>
    <text
       xml:space="preserve"
       style="font-size:12px;font-style:normal;font-weight:bold;text-align:center;line-height:125%;letter-spacing:0px;word-spacing:0px;text-anchor:middle;fill:#000000;fill-opacity:1;stroke:none;font-family:Sans;-inkscape-font-specification:Sans Bold"
       x="578.91455"
       y="670.91602"
       id="text5531-6"
       sodipodi:linespacing="125%"
       transform="matrix(0.99998891,-0.00470875,0.00470875,0.99998891,0,0)"><tspan
         sodipodi:role="line"
         x="578.91455"
         y="670.91602"
         id="tspan5537-0">Biblioteca</tspan></text>
    <path
       sodipodi:type="arc"
       style="fill:#ffc879;fill-opacity:1;stroke:#000000;stroke-width:1.46300006;stroke-miterlimit:4;stroke-opacity:1;stroke-dasharray:none"
       id="path3108"
       sodipodi:cx="162.23404"
       sodipodi:cy="94.551308"
       sodipodi:rx="12.234042"
       sodipodi:ry="12.234042"
       d="m 174.46808,94.551308 a 12.234042,12.234042 0 1 1 -24.46808,0 12.234042,12.234042 0 1 1 24.46808,0 z"
       transform="matrix(0.89743682,0,0,0.89743682,-0.11607983,449.15732)" />
    <text
       xml:space="preserve"
       style="font-size:9px;font-style:normal;font-weight:normal;line-height:125%;letter-spacing:0px;word-spacing:0px;fill:#000000;fill-opacity:1;stroke:none;font-family:Sans"
       x="118.81187"
       y="519.68896"
       id="text3882"
       sodipodi:linespacing="125%"><tspan
         sodipodi:role="line"
         id="tspan3884"
         x="118.81187"
         y="519.68896">Caixa d'água</tspan></text>
    <path
       style="fill:#b3b3b3;stroke:#000000;stroke-width:1px;stroke-linecap:butt;stroke-linejoin:miter;stroke-opacity:1"
       d="m 343.98148,212.25225 3.24074,57.87037 21.2963,-1.38889 0.92592,10.64815 -21.75925,2.77778 5.09259,75 -12.96297,0.46296 -4.62962,-75 -21.75926,0.46296 0,-11.11111 20.83333,-1.38889 -1.85185,-57.87036 z"
       id="path3888"
       inkscape:connector-curvature="0"
       transform="translate(0,449.83218)"
       sodipodi:nodetypes="ccccccccccccc" />
    <path
       style="fill:#b3b3b3;stroke:#000000;stroke-width:1px;stroke-linecap:butt;stroke-linejoin:miter;stroke-opacity:1"
       d="m 432.91858,837.21246 c 2.78746,12.21306 -0.017,24.14048 -2.45466,29.0016 0.77461,5.81999 0.7745,11.75262 0.4949,15.9205 11.57391,-3.86709 15.58739,-33.45021 14.23499,-45.94412 z"
       id="path3890"
       inkscape:connector-curvature="0"
       sodipodi:nodetypes="ccccc" />
    <path
       style="fill:#b3b3b3;stroke:#000000;stroke-width:1px;stroke-linecap:butt;stroke-linejoin:miter;stroke-opacity:1"
       d="m 455.60345,173.21968 c 30.00654,-1.60042 70.58181,-5.34255 83.84335,-6.8627 -3.99823,-9.85798 -8.08916,-17.9257 -11.0329,-25.3834 l -55.56908,1.21162 c 0.63683,-2.54875 0.0851,-3.47196 -0.43103,-11.63793 l 50.62616,-1.86742 -5.36754,-15.80499 11.63793,-1.29311 7.73907,17.43019 69.01094,-6.73622 -4.33621,-19.74569 9.98276,-1.59914 4.94827,20.92673 4.46552,-0.36207 1.36207,11.85776 -79.48612,6.43449 c 9.30528,20.45406 14.6677,32.63608 21.2275,45.50085 l -12.8319,2.09914 -5.65948,-10.48276 c -29.04174,1.7022 -56.19602,4.00392 -89.26725,7.09052 z"
       id="path3894"
       inkscape:connector-curvature="0"
       transform="translate(0,449.83218)"
       sodipodi:nodetypes="ccccccccccccccccccccc" />
    <rect
       style="fill:#cccccc;fill-opacity:1;stroke:#000000;stroke-width:1.46300005999999994;stroke-miterlimit:4;stroke-opacity:1;stroke-dasharray:none"
       id="rect3896"
       width="76.851852"
       height="39.351852"
       x="322.68518"
       y="21.974474"
       transform="translate(0,449.83218)" />
    <text
       xml:space="preserve"
       style="font-size:14px;font-style:normal;font-weight:normal;line-height:125%;letter-spacing:0px;word-spacing:0px;fill:#000000;fill-opacity:1;stroke:none;font-family:Sans"
       x="334.25925"
       y="495.88074"
       id="text3898"
       sodipodi:linespacing="125%"><tspan
         sodipodi:role="line"
         id="tspan3900"
         x="334.25925"
         y="495.88074">Quadra</tspan></text>
    <path
       style="fill:#b3b3b3;stroke:#000000;stroke-width:1px;stroke-linecap:butt;stroke-linejoin:miter;stroke-opacity:1"
       d="m 399.0099,265.40132 c 15.12789,-0.97359 28.20331,-23.11146 42.07921,-39.10891 l 0.49505,12.37623 c -7.27056,11.18096 -21.13091,29.14508 -42.07921,39.10891 z"
       id="path3902"
       inkscape:connector-curvature="0"
       transform="translate(0,449.83218)"
       sodipodi:nodetypes="ccccc" />
    <path
       style="fill:#b3b3b3;stroke:#000000;stroke-width:1px;stroke-linecap:butt;stroke-linejoin:miter;stroke-opacity:1"
       d="m 331.18812,162.92607 0.49505,4.95049 c 0,0 -48.27823,-4.06485 -70.53713,4.25495 -19.88053,7.43082 -44.28316,7.68378 -63.13119,-2.98514 -14.36207,-8.12964 -49.5,-3.74505 -49.5,-3.74505 l 0,8.91089 c 0,0 32.65376,-4.17087 46.29456,2.49505 20.20636,9.87434 42.68038,11.4608 68.77227,3.49505 17.48876,-5.33925 69.08664,-5.2401 69.08664,-5.2401 l 0.5,5.68564 10.89109,-0.49505 -0.49505,-5.94059 c 0,0 32.76246,-4.36922 49.0099,-2.47525 15.87273,1.85029 23.2164,15.44639 46.0396,13.36634 l 0,-9.40594 c -16.88649,7.84291 -28.99574,-9.4918 -44.0594,-10.89109 -17.2806,-1.60523 -51.9802,2.9703 -51.9802,2.9703 l 0,-5.44555 z"
       id="path3904"
       inkscape:connector-curvature="0"
       transform="translate(0,449.83218)"
       sodipodi:nodetypes="ccssccssccccaccaccc" />
  </g>
</svg>
